<?xml version="1.0" encoding="UTF-8"?>
<!DOCTYPE svg PUBLIC "-//W3C//DTD SVG 1.1//EN" "http://www.w3.org/Graphics/SVG/1.1/DTD/svg11.dtd">
<svg xmlns="http://www.w3.org/2000/svg" version="1.1" width="490px" height="540px" style="shape-rendering:geometricPrecision; text-rendering:geometricPrecision; image-rendering:optimizeQuality; fill-rule:evenodd; clip-rule:evenodd" xmlns:xlink="http://www.w3.org/1999/xlink">
<g><path style="opacity:1" fill="#fefffe" d="M -0.5,-0.5 C 162.833,-0.5 326.167,-0.5 489.5,-0.5C 489.5,179.5 489.5,359.5 489.5,539.5C 326.167,539.5 162.833,539.5 -0.5,539.5C -0.5,359.5 -0.5,179.5 -0.5,-0.5 Z"/></g>
<g><path style="opacity:1" fill="#4f71be" d="M 9.5,10.5 C 166.5,10.5 323.5,10.5 480.5,10.5C 480.5,184.833 480.5,359.167 480.5,533.5C 323.5,533.5 166.5,533.5 9.5,533.5C 9.5,359.167 9.5,184.833 9.5,10.5 Z"/></g>
<g><path style="opacity:1" fill="#fefefe" d="M 20.5,21.5 C 170.167,21.5 319.833,21.5 469.5,21.5C 469.5,188.5 469.5,355.5 469.5,522.5C 319.833,522.5 170.167,522.5 20.5,522.5C 20.5,355.5 20.5,188.5 20.5,21.5 Z"/></g>
<g><path style="opacity:1" fill="#3471bb" d="M 238.5,96.5 C 269.568,96.5972 298.235,104.764 324.5,121C 329.885,124.949 333.385,130.116 335,136.5C 336.977,151.164 336.977,165.83 335,180.5C 332.91,187.276 328.41,190.443 321.5,190C 312.514,184.506 303.514,179.006 294.5,173.5C 272.502,161.831 249.169,158.331 224.5,163C 201.19,169.976 184.357,184.476 174,206.5C 162.64,236.028 158.64,266.695 162,298.5C 163.631,318.725 169.298,337.725 179,355.5C 195.511,378.756 218.177,390.089 247,389.5C 262.175,389.388 276.675,386.221 290.5,380C 300.825,374.84 310.825,369.173 320.5,363C 331.476,360.282 336.976,364.782 337,376.5C 337.667,386.833 337.667,397.167 337,407.5C 336.187,416.294 332.353,423.46 325.5,429C 305.287,441.627 283.287,449.294 259.5,452C 222.558,457.079 187.558,451.413 154.5,435C 122.1,415.753 100.6,387.919 90,351.5C 78.5732,307.403 77.5732,263.069 87,218.5C 107.978,141.01 158.478,100.344 238.5,96.5 Z"/></g>
<g><path style="opacity:1" fill="#c1d5eb" d="M 233.5,102.5 C 257.446,101.723 280.446,105.89 302.5,115C 311.418,118.595 319.251,123.762 326,130.5C 328.133,134.232 329.466,138.232 330,142.5C 330.843,154.872 330.51,167.205 329,179.5C 328.263,182.405 326.429,184.072 323.5,184.5C 311.7,177.43 299.7,170.597 287.5,164C 261.686,153.032 235.686,152.365 209.5,162C 183.543,176.058 167.376,197.558 161,226.5C 154.414,257.018 153.748,287.684 159,318.5C 169.337,371.196 201.17,396.696 254.5,395C 279.236,392.423 301.57,383.756 321.5,369C 328.065,365.877 331.231,368.043 331,375.5C 331.667,386.167 331.667,396.833 331,407.5C 330.106,417.069 325.273,423.902 316.5,428C 276.646,447.857 234.979,452.857 191.5,443C 149.245,432.759 119.412,407.592 102,367.5C 87.9804,329.327 83.3137,289.993 88,249.5C 91.3941,205.222 108.894,167.722 140.5,137C 167.889,115.704 198.889,104.204 233.5,102.5 Z"/></g>
<g><path style="opacity:1" fill="#5172be" d="M 414.5,188.5 C 415.239,188.369 415.906,188.536 416.5,189C 414.56,196.264 412.394,203.431 410,210.5C 408.649,208.981 407.149,207.648 405.5,206.5C 376.869,239.088 348.703,272.088 321,305.5C 319.488,306.257 318.154,307.257 317,308.5C 297.191,289.269 277.191,270.269 257,251.5C 245.5,262.333 234,273.167 222.5,284C 220.248,283.95 218.582,282.784 217.5,280.5C 230.51,267.657 243.676,254.99 257,242.5C 276.781,260.612 296.281,279.112 315.5,298C 316.5,298.667 317.5,298.667 318.5,298C 345.889,266.282 372.889,234.282 399.5,202C 398.004,200.669 396.671,199.169 395.5,197.5C 401.816,194.293 408.149,191.293 414.5,188.5 Z"/></g>
</svg>
