<?xml version="1.0" encoding="UTF-8"?>
<!DOCTYPE svg PUBLIC "-//W3C//DTD SVG 1.1//EN" "http://www.w3.org/Graphics/SVG/1.1/DTD/svg11.dtd">
<svg xmlns="http://www.w3.org/2000/svg" version="1.1" width="1528px" height="338px" style="shape-rendering:geometricPrecision; text-rendering:geometricPrecision; image-rendering:optimizeQuality; fill-rule:evenodd; clip-rule:evenodd" xmlns:xlink="http://www.w3.org/1999/xlink">
<g><path style="opacity:1" fill="#fefefe" d="M -0.5,-0.5 C 508.833,-0.5 1018.17,-0.5 1527.5,-0.5C 1527.5,112.167 1527.5,224.833 1527.5,337.5C 1018.17,337.5 508.833,337.5 -0.5,337.5C -0.5,224.833 -0.5,112.167 -0.5,-0.5 Z"/></g>
<g><path style="opacity:1" fill="#4f71be" d="M 6.5,9.5 C 102.5,9.5 198.5,9.5 294.5,9.5C 294.5,116.5 294.5,223.5 294.5,330.5C 198.5,330.5 102.5,330.5 6.5,330.5C 6.5,223.5 6.5,116.5 6.5,9.5 Z"/></g>
<g><path style="opacity:1" fill="#fefefe" d="M 13.5,16.5 C 104.833,16.5 196.167,16.5 287.5,16.5C 287.5,118.833 287.5,221.167 287.5,323.5C 196.167,323.5 104.833,323.5 13.5,323.5C 13.5,221.167 13.5,118.833 13.5,16.5 Z"/></g>
<g><path style="opacity:1" fill="#3874bd" d="M 134.5,61.5 C 150.528,60.668 166.195,62.5013 181.5,67C 187.252,69.7106 192.918,72.7106 198.5,76C 201.762,78.592 204.262,81.7587 206,85.5C 206.667,94.5 206.667,103.5 206,112.5C 204.668,117.517 201.501,119.684 196.5,119C 185.901,111.029 174.235,105.362 161.5,102C 129.628,98.5352 109.794,112.369 102,143.5C 98.6667,162.167 98.6667,180.833 102,199.5C 109.781,231.254 129.947,244.754 162.5,240C 174.81,237.178 186.143,232.178 196.5,225C 201.996,223.11 205.496,224.943 207,230.5C 207.816,239.879 207.483,249.213 206,258.5C 205,260.167 204,261.833 203,263.5C 189.332,272.947 174.165,278.447 157.5,280C 96.414,285.235 60.914,257.735 51,197.5C 46.7193,169.606 49.7193,142.606 60,116.5C 75.2145,85.1423 100.048,66.809 134.5,61.5 Z"/></g>
<g><path style="opacity:1" fill="#c0d5eb" d="M 137.5,65.5 C 158.744,63.7118 178.411,68.2118 196.5,79C 199.467,81.1005 201.3,83.9338 202,87.5C 202.667,95.8333 202.667,104.167 202,112.5C 201.051,115.2 199.217,116.033 196.5,115C 185.752,106.625 173.752,100.959 160.5,98C 133.075,94.6281 113.575,105.461 102,130.5C 93.7423,157.01 93.4089,183.676 101,210.5C 114.324,239.109 136.491,249.942 167.5,243C 178.273,239.946 188.273,235.279 197.5,229C 199.134,228.506 200.801,228.34 202.5,228.5C 203.965,238.193 203.799,247.859 202,257.5C 201.215,259.286 200.049,260.786 198.5,262C 173.803,276.282 147.469,280.282 119.5,274C 91.5008,268.336 72.3341,252.17 62,225.5C 53.5788,200.424 51.2455,174.758 55,148.5C 58.6793,120.626 71.5127,98.1262 93.5,81C 107.186,72.7177 121.852,67.5511 137.5,65.5 Z"/></g>
<g><path style="opacity:1" fill="#435d98" d="M 1283.5,110.5 C 1298.57,108.256 1305.07,114.589 1303,129.5C 1301.75,132.171 1299.92,134.337 1297.5,136C 1289.59,138.903 1282.43,137.736 1276,132.5C 1273.36,125.466 1274.2,118.966 1278.5,113C 1280.31,112.243 1281.98,111.41 1283.5,110.5 Z"/></g>
<g><path style="opacity:1" fill="#425c97" d="M 920.5,110.5 C 935.824,108.658 941.99,115.324 939,130.5C 937.132,134.521 933.965,136.687 929.5,137C 915.478,139.309 909.311,133.476 911,119.5C 912.809,114.852 915.975,111.852 920.5,110.5 Z"/></g>
<g><path style="opacity:1" fill="#3f5a96" d="M 372.5,114.5 C 385.84,112.601 398.174,115.101 409.5,122C 411.378,123.543 412.878,125.376 414,127.5C 414.667,132.833 414.667,138.167 414,143.5C 412.484,146.006 410.318,146.84 407.5,146C 398.727,138.855 388.727,136.189 377.5,138C 367.563,141.34 361.396,148.174 359,158.5C 356.315,171.812 357.315,184.812 362,197.5C 369.835,208.757 380.501,212.423 394,208.5C 398.836,206.999 403.336,204.832 407.5,202C 410.025,201.104 412.192,201.604 414,203.5C 418.284,214.335 415.451,222.502 405.5,228C 393.202,232.309 380.536,233.642 367.5,232C 347.563,227.063 335.397,214.563 331,194.5C 327.069,174.912 329.402,156.245 338,138.5C 346.12,125.532 357.62,117.532 372.5,114.5 Z"/></g>
<g><path style="opacity:1" fill="#a1bee0" d="M 1284.5,114.5 C 1299.04,113.202 1303.04,119.036 1296.5,132C 1282.6,137.336 1276.77,132.836 1279,118.5C 1280.46,116.535 1282.29,115.201 1284.5,114.5 Z"/></g>
<g><path style="opacity:1" fill="#a1bee0" d="M 921.5,114.5 C 925.911,114.021 930.078,114.688 934,116.5C 938.846,130.325 934.013,135.825 919.5,133C 914.915,129.69 913.415,125.19 915,119.5C 916.272,116.508 918.438,114.841 921.5,114.5 Z"/></g>
<g><path style="opacity:1" fill="#3f5a96" d="M 1168.5,115.5 C 1174.51,115.334 1180.51,115.501 1186.5,116C 1187.93,116.465 1189.1,117.299 1190,118.5C 1199.01,145.533 1208.01,172.533 1217,199.5C 1225.29,172.375 1233.96,145.375 1243,118.5C 1246.92,116.092 1251.26,115.092 1256,115.5C 1264.56,113.897 1268.22,117.231 1267,125.5C 1255.08,158.922 1243.75,192.589 1233,226.5C 1232.04,227.579 1231.21,228.745 1230.5,230C 1221.27,231.611 1211.93,231.945 1202.5,231C 1201.33,229.833 1200.17,228.667 1199,227.5C 1186.76,192.123 1174.93,156.623 1163.5,121C 1164.65,118.682 1166.32,116.849 1168.5,115.5 Z"/></g>
<g><path style="opacity:1" fill="#a3c0e1" d="M 374.5,118.5 C 386.179,117.536 397.179,119.703 407.5,125C 408.333,125.833 409.167,126.667 410,127.5C 410.667,132.167 410.667,136.833 410,141.5C 409.586,141.957 409.086,142.291 408.5,142.5C 401.178,137.084 393.012,134.084 384,133.5C 371.897,133.886 363.23,139.553 358,150.5C 352.029,166.474 352.029,182.474 358,198.5C 365.842,211.605 377.342,216.438 392.5,213C 399.109,211.022 405.443,208.522 411.5,205.5C 411.666,209.846 411.499,214.179 411,218.5C 407.244,222.969 402.411,225.802 396.5,227C 354.339,234.426 333.339,216.759 333.5,174C 332.677,155.926 338.677,140.592 351.5,128C 358.594,123.144 366.26,119.977 374.5,118.5 Z"/></g>
<g><path style="opacity:1" fill="#5374bf" d="M 254.5,118.5 C 255.097,118.735 255.43,119.235 255.5,120C 254.09,123.809 252.756,127.642 251.5,131.5C 250.232,130.572 248.899,130.405 247.5,131C 230.5,150.667 213.5,170.333 196.5,190C 195.167,190.667 193.833,190.667 192.5,190C 180.955,178.785 169.121,167.952 157,157.5C 150.012,163.82 143.012,170.154 136,176.5C 135.167,175.667 134.333,174.833 133.5,174C 141.651,166.683 149.651,159.183 157.5,151.5C 169.478,163.477 181.812,175.143 194.5,186.5C 212.396,167.129 229.229,147.129 245,126.5C 244.075,125.953 243.242,125.287 242.5,124.5C 246.561,122.47 250.561,120.47 254.5,118.5 Z"/></g>
<g><path style="opacity:1" fill="#a2bfe1" d="M 1167.5,119.5 C 1174.09,119.189 1180.59,119.522 1187,120.5C 1196.33,149.833 1205.67,179.167 1215,208.5C 1216.59,209.727 1217.92,209.394 1219,207.5C 1227.72,178.399 1236.72,149.399 1246,120.5C 1251.74,119.525 1257.57,119.192 1263.5,119.5C 1252.97,155.91 1240.97,191.743 1227.5,227C 1219.5,227.667 1211.5,227.667 1203.5,227C 1190.4,191.544 1178.4,155.71 1167.5,119.5 Z"/></g>
<g><path style="opacity:1" fill="#405b97" d="M 859.5,124.5 C 865.925,124.13 872.258,124.63 878.5,126C 879,126.5 879.5,127 880,127.5C 880.499,133.157 880.666,138.824 880.5,144.5C 886.05,144.237 891.55,144.57 897,145.5C 898.221,146.272 899.221,147.272 900,148.5C 900.829,153.533 900.662,158.533 899.5,163.5C 898.833,164.167 898.167,164.833 897.5,165.5C 891.896,166.454 886.229,166.788 880.5,166.5C 880.054,180.24 880.554,193.907 882,207.5C 882.374,208.416 882.874,209.25 883.5,210C 888.515,210.219 893.515,210.219 898.5,210C 904.801,225.369 899.634,232.869 883,232.5C 870.81,233.41 862.143,228.41 857,217.5C 855.573,200.548 855.073,183.548 855.5,166.5C 846.324,168.158 841.99,164.324 842.5,155C 842.464,146.33 846.798,142.83 855.5,144.5C 855.171,138.463 855.504,132.463 856.5,126.5C 857.739,126.058 858.739,125.391 859.5,124.5 Z"/></g>
<g><path style="opacity:1" fill="#405a96" d="M 1394.5,124.5 C 1400.18,124.334 1405.84,124.501 1411.5,125C 1413.49,125.574 1414.99,126.741 1416,128.5C 1416.5,133.823 1416.67,139.156 1416.5,144.5C 1433.47,140.634 1439.64,146.967 1435,163.5C 1434.17,164.333 1433.33,165.167 1432.5,166C 1427.18,166.499 1421.84,166.666 1416.5,166.5C 1416.33,179.837 1416.5,193.171 1417,206.5C 1417.5,207.5 1418,208.5 1418.5,209.5C 1423.82,210.268 1429.15,210.435 1434.5,210C 1440.55,225.949 1435.05,233.449 1418,232.5C 1401.81,232.646 1392.81,224.646 1391,208.5C 1390.5,194.504 1390.33,180.504 1390.5,166.5C 1381.55,168.269 1377.55,164.602 1378.5,155.5C 1377.95,147.055 1381.95,143.388 1390.5,144.5C 1390.33,139.156 1390.5,133.823 1391,128.5C 1391.69,126.65 1392.86,125.316 1394.5,124.5 Z"/></g>
<g><path style="opacity:1" fill="#a3c0e1" d="M 859.5,128.5 C 865.167,128.5 870.833,128.5 876.5,128.5C 876.334,134.842 876.5,141.175 877,147.5C 883.085,148.312 889.252,148.812 895.5,149C 896.467,153.401 896.8,157.901 896.5,162.5C 889.91,162.189 883.41,162.522 877,163.5C 876.333,177.167 876.333,190.833 877,204.5C 877.313,208.965 879.479,212.132 883.5,214C 887.871,214.629 892.204,214.463 896.5,213.5C 896.665,217.182 896.499,220.848 896,224.5C 895.348,226.723 893.848,227.89 891.5,228C 884.086,228.89 876.753,228.557 869.5,227C 865.212,224.708 862.378,221.208 861,216.5C 859.722,198.886 859.055,181.219 859,163.5C 855.21,162.864 851.377,162.197 847.5,161.5C 846.191,157.302 846.191,153.136 847.5,149C 851.421,148.797 855.255,148.297 859,147.5C 859.5,141.175 859.666,134.842 859.5,128.5 Z"/></g>
<g><path style="opacity:1" fill="#a2bfe1" d="M 1395.5,128.5 C 1401.17,128.5 1406.83,128.5 1412.5,128.5C 1412.33,134.842 1412.5,141.175 1413,147.5C 1419.11,148.148 1425.28,148.815 1431.5,149.5C 1432.81,153.698 1432.81,157.864 1431.5,162C 1425.25,162.188 1419.09,162.688 1413,163.5C 1412.33,177.833 1412.33,192.167 1413,206.5C 1413.89,210.112 1416.06,212.612 1419.5,214C 1423.86,214.534 1428.19,214.368 1432.5,213.5C 1432.67,217.514 1432.5,221.514 1432,225.5C 1430.35,226.717 1428.52,227.55 1426.5,228C 1419.44,228.788 1412.44,228.455 1405.5,227C 1399.65,223.474 1396.15,218.307 1395,211.5C 1394.67,195.5 1394.33,179.5 1394,163.5C 1390.33,162.833 1386.67,162.167 1383,161.5C 1382.5,157.179 1382.33,152.846 1382.5,148.5C 1386.5,148.5 1390.5,148.5 1394.5,148.5C 1394.21,141.745 1394.54,135.078 1395.5,128.5 Z"/></g>
<g><path style="opacity:1" fill="#415b97" d="M 459.5,142.5 C 495.743,142.911 511.577,161.244 507,197.5C 501.132,223.872 484.632,235.705 457.5,233C 438.985,231.185 427.485,221.352 423,203.5C 417.974,183.088 422.807,165.588 437.5,151C 444.29,146.464 451.623,143.631 459.5,142.5 Z"/></g>
<g><path style="opacity:1" fill="#405b96" d="M 563.5,142.5 C 575.087,141.878 584.253,146.211 591,155.5C 601.65,143.963 614.483,140.463 629.5,145C 639.423,150.598 644.923,159.098 646,170.5C 646.826,190.073 646.659,209.573 645.5,229C 641.675,231.057 637.508,231.89 633,231.5C 629.833,231.167 626.667,230.833 623.5,230.5C 622.833,229.833 622.167,229.167 621.5,228.5C 620.68,210.544 620.18,192.544 620,174.5C 618.095,166.252 613.262,163.752 605.5,167C 602.37,169.128 599.537,171.628 597,174.5C 596.667,192.167 596.333,209.833 596,227.5C 594.833,228.667 593.667,229.833 592.5,231C 586.141,231.831 579.807,231.664 573.5,230.5C 572.478,229.646 571.645,228.646 571,227.5C 570.667,209.5 570.333,191.5 570,173.5C 566.652,165.295 561.152,163.462 553.5,168C 551,170.5 548.5,173 546,175.5C 545.667,193.167 545.333,210.833 545,228.5C 544.097,229.701 542.931,230.535 541.5,231C 535.472,231.83 529.472,231.664 523.5,230.5C 522.758,229.713 521.925,229.047 521,228.5C 520.333,201.833 520.333,175.167 521,148.5C 521.5,146.667 522.667,145.5 524.5,145C 529.5,144.333 534.5,144.333 539.5,145C 541.885,147.226 543.051,150.059 543,153.5C 548.855,147.825 555.689,144.158 563.5,142.5 Z"/></g>
<g><path style="opacity:1" fill="#405b97" d="M 690.5,226.5 C 690.217,225.711 689.717,225.044 689,224.5C 688.5,235.495 688.333,246.495 688.5,257.5C 688.056,259.113 687.056,260.28 685.5,261C 679.92,262.517 674.253,262.851 668.5,262C 666.714,261.215 665.214,260.049 664,258.5C 663.013,221.082 663.346,183.749 665,146.5C 668.098,144.953 671.431,144.286 675,144.5C 681.988,143.668 685.821,146.668 686.5,153.5C 702.772,138.998 718.939,138.998 735,153.5C 743.238,167.022 746.238,181.689 744,197.5C 742.182,211.327 735.682,222.16 724.5,230C 712.426,235.493 701.093,234.326 690.5,226.5 Z"/></g>
<g><path style="opacity:1" fill="#425c98" d="M 998.5,142.5 C 1014.52,141.718 1025.35,148.718 1031,163.5C 1032.6,184.796 1032.93,206.129 1032,227.5C 1031.5,229.333 1030.33,230.5 1028.5,231C 1023.17,231.667 1017.83,231.667 1012.5,231C 1010.35,230.735 1008.68,229.735 1007.5,228C 1006.69,209.865 1006.19,191.698 1006,173.5C 1001.85,164.714 995.686,163.214 987.5,169C 985.333,171.167 983.167,173.333 981,175.5C 980.667,193.167 980.333,210.833 980,228.5C 979.167,229.333 978.333,230.167 977.5,231C 971.141,231.831 964.807,231.664 958.5,230.5C 957.758,229.713 956.925,229.047 956,228.5C 955.333,201.833 955.333,175.167 956,148.5C 956.5,146.667 957.667,145.5 959.5,145C 964.5,144.333 969.5,144.333 974.5,145C 976.743,147.295 978.077,150.129 978.5,153.5C 984.372,148.234 991.039,144.567 998.5,142.5 Z"/></g>
<g><path style="opacity:1" fill="#405a96" d="M 1071.5,143.5 C 1087.17,143.881 1102.83,144.381 1118.5,145C 1120.05,146.214 1121.22,147.714 1122,149.5C 1125,158.856 1121.83,164.522 1112.5,166.5C 1115.51,188.003 1106.18,200.169 1084.5,203C 1079.55,203.746 1074.71,203.246 1070,201.5C 1067.68,202.409 1067.01,204.075 1068,206.5C 1068.75,207.126 1069.58,207.626 1070.5,208C 1082.26,208.064 1093.93,209.064 1105.5,211C 1123.07,220.616 1126.24,233.782 1115,250.5C 1107.88,257.215 1099.38,261.049 1089.5,262C 1074.96,264.392 1061.29,262.059 1048.5,255C 1041.91,248.894 1039.74,241.394 1042,232.5C 1044.29,228.381 1047.12,224.714 1050.5,221.5C 1044.49,215.154 1042.99,207.82 1046,199.5C 1048.21,196.905 1050.05,194.072 1051.5,191C 1045.24,180.038 1044.91,168.871 1050.5,157.5C 1055.96,150.352 1062.96,145.685 1071.5,143.5 Z"/></g>
<g><path style="opacity:1" fill="#3f5a96" d="M 1344.5,142.5 C 1354.21,141.946 1363.05,144.28 1371,149.5C 1373.13,155.436 1372.96,161.269 1370.5,167C 1363.89,164.918 1357.06,163.418 1350,162.5C 1340.95,161.524 1338.11,165.024 1341.5,173C 1350.42,176.631 1359.08,180.631 1367.5,185C 1376.92,194.237 1379.09,205.07 1374,217.5C 1370.03,223.797 1364.53,228.297 1357.5,231C 1343.45,235.236 1330.12,233.736 1317.5,226.5C 1316.19,225.088 1315.36,223.421 1315,221.5C 1314.33,217.833 1314.33,214.167 1315,210.5C 1315.87,208.387 1317.37,207.054 1319.5,206.5C 1327.68,212.059 1336.68,214.226 1346.5,213C 1351.22,211.506 1352.72,208.339 1351,203.5C 1346.57,199.537 1341.41,197.037 1335.5,196C 1315.52,187.738 1310.36,173.905 1320,154.5C 1326.69,147.334 1334.86,143.334 1344.5,142.5 Z"/></g>
<g><path style="opacity:1" fill="#415b97" d="M 1474.5,142.5 C 1486.92,141.267 1498.08,144.267 1508,151.5C 1511.67,155.847 1514.01,160.847 1515,166.5C 1515.83,187.508 1515.67,208.508 1514.5,229.5C 1513.69,229.808 1513.03,230.308 1512.5,231C 1507.17,231.667 1501.83,231.667 1496.5,231C 1494.96,229.421 1493.79,227.587 1493,225.5C 1478.58,235.702 1464.08,235.868 1449.5,226C 1438.22,212.053 1438.89,198.72 1451.5,186C 1455.68,182.91 1460.35,180.91 1465.5,180C 1473.78,178.713 1482.11,178.213 1490.5,178.5C 1491.95,172.102 1489.95,167.269 1484.5,164C 1479.83,163.333 1475.17,163.333 1470.5,164C 1464.38,165.895 1458.38,168.062 1452.5,170.5C 1450.09,170.594 1448.26,169.594 1447,167.5C 1443.52,158.629 1446.02,152.129 1454.5,148C 1461.14,145.581 1467.81,143.748 1474.5,142.5 Z"/></g>
<g><path style="opacity:1" fill="#3b5693" d="M 761.5,144.5 C 767.176,144.334 772.843,144.501 778.5,145C 780,145.833 781.167,147 782,148.5C 782.333,165.833 782.667,183.167 783,200.5C 785.525,210.509 791.358,213.009 800.5,208C 803.667,206.167 806.167,203.667 808,200.5C 808.04,182.434 808.706,164.434 810,146.5C 813.806,144.977 817.806,144.31 822,144.5C 824.833,144.667 827.667,144.833 830.5,145C 831.333,145.833 832.167,146.667 833,147.5C 833.667,174.5 833.667,201.5 833,228.5C 832.167,229.333 831.333,230.167 830.5,231C 825.833,231.667 821.167,231.667 816.5,231C 812.546,229.602 810.712,226.768 811,222.5C 795.56,236.643 779.894,236.977 764,223.5C 760.632,219.065 758.632,214.065 758,208.5C 757.333,188.167 757.333,167.833 758,147.5C 759.145,146.364 760.312,145.364 761.5,144.5 Z"/></g>
<g><path style="opacity:1" fill="#49629c" d="M 917.5,144.5 C 924.393,144.01 931.06,144.677 937.5,146.5C 938.64,173.47 938.807,200.47 938,227.5C 934.249,230.981 929.749,232.314 924.5,231.5C 921.5,231.167 918.5,230.833 915.5,230.5C 914.758,229.713 913.925,229.047 913,228.5C 912.333,201.5 912.333,174.5 913,147.5C 914.652,146.601 916.152,145.601 917.5,144.5 Z"/></g>
<g><path style="opacity:1" fill="#3c5894" d="M 1281.5,144.5 C 1286.84,144.334 1292.18,144.501 1297.5,145C 1298.58,145.956 1299.75,146.789 1301,147.5C 1301.67,174.167 1301.67,200.833 1301,227.5C 1300.5,229.333 1299.33,230.5 1297.5,231C 1290.69,231.991 1284.02,231.491 1277.5,229.5C 1276.33,202.506 1276.17,175.506 1277,148.5C 1277.91,146.391 1279.41,145.058 1281.5,144.5 Z"/></g>
<g><path style="opacity:1" fill="#a2bfe1" d="M 464.5,146.5 C 489.957,146.29 502.957,158.956 503.5,184.5C 504.9,212.933 491.4,227.933 463,229.5C 437.578,228.742 425.078,215.576 425.5,190C 424.725,162.949 437.725,148.449 464.5,146.5 Z"/></g>
<g><path style="opacity:1" fill="#a3c0e1" d="M 565.5,146.5 C 571.531,146.668 577.197,148.168 582.5,151C 585.24,154.361 588.073,157.528 591,160.5C 594.822,157.347 598.655,154.18 602.5,151C 622.594,141.578 635.761,147.411 642,168.5C 642.667,187.833 642.667,207.167 642,226.5C 636.259,227.475 630.425,227.808 624.5,227.5C 624.667,209.497 624.5,191.497 624,173.5C 619.747,161.891 612.247,159.058 601.5,165C 598.667,167.833 595.833,170.667 593,173.5C 592.667,191.167 592.333,208.833 592,226.5C 586.259,227.475 580.425,227.808 574.5,227.5C 574.667,209.83 574.5,192.164 574,174.5C 572.968,166.802 568.635,162.468 561,161.5C 557.447,161.684 554.281,162.85 551.5,165C 548.333,168.167 545.167,171.333 542,174.5C 541.5,192.164 541.333,209.83 541.5,227.5C 535.833,227.5 530.167,227.5 524.5,227.5C 524.333,201.498 524.5,175.498 525,149.5C 529.401,148.533 533.901,148.2 538.5,148.5C 538.335,152.182 538.501,155.848 539,159.5C 539.561,160.022 540.228,160.355 541,160.5C 547.607,153.051 555.773,148.384 565.5,146.5 Z"/></g>
<g><path style="opacity:1" fill="#a3c0e1" d="M 710.5,146.5 C 726.113,147.077 735.613,155.077 739,170.5C 742.554,186.97 740.554,202.637 733,217.5C 717.93,232.845 702.596,233.178 687,218.5C 686.5,218.667 686,218.833 685.5,219C 684.842,231.771 684.175,244.604 683.5,257.5C 678.303,258.814 673.136,258.814 668,257.5C 667.333,221.5 667.333,185.5 668,149.5C 672.401,148.533 676.901,148.2 681.5,148.5C 681.5,152.5 681.5,156.5 681.5,160.5C 682.552,160.649 683.552,160.483 684.5,160C 691.489,152.007 700.156,147.507 710.5,146.5 Z"/></g>
<g><path style="opacity:1" fill="#a4c1e2" d="M 1001.5,146.5 C 1017.45,146.621 1026.29,154.621 1028,170.5C 1028.67,189.167 1028.67,207.833 1028,226.5C 1022.59,227.473 1017.09,227.807 1011.5,227.5C 1011.92,209.125 1011.42,190.792 1010,172.5C 1005.15,161.032 997.32,158.532 986.5,165C 983.333,168.167 980.167,171.333 977,174.5C 976.5,192.164 976.333,209.83 976.5,227.5C 970.833,227.5 965.167,227.5 959.5,227.5C 959.333,201.498 959.5,175.498 960,149.5C 964.413,148.368 968.913,148.201 973.5,149C 974.46,152.73 974.793,156.563 974.5,160.5C 975.552,160.649 976.552,160.483 977.5,160C 983.717,152.065 991.717,147.565 1001.5,146.5 Z"/></g>
<g><path style="opacity:1" fill="#a2bfe1" d="M 1072.5,147.5 C 1087.74,147.846 1102.91,148.513 1118,149.5C 1118.67,153.167 1118.67,156.833 1118,160.5C 1114.59,161.293 1111.09,161.793 1107.5,162C 1114.12,185.263 1105.12,197.763 1080.5,199.5C 1076.22,198.945 1072.05,197.945 1068,196.5C 1064.18,199.165 1062.84,202.831 1064,207.5C 1065.21,209.049 1066.71,210.215 1068.5,211C 1076.42,212.235 1084.42,212.902 1092.5,213C 1114.41,214.344 1121.57,225.177 1114,245.5C 1107.53,252.887 1099.36,257.053 1089.5,258C 1080.11,258.853 1070.78,258.519 1061.5,257C 1048.44,254.375 1043.27,246.542 1046,233.5C 1048.8,229.038 1051.96,224.872 1055.5,221C 1053.83,218.735 1052,216.569 1050,214.5C 1048.57,210.594 1048.23,206.594 1049,202.5C 1051.13,198.394 1053.63,194.561 1056.5,191C 1050.85,183.424 1049.02,174.924 1051,165.5C 1054.72,155.278 1061.88,149.278 1072.5,147.5 Z"/></g>
<g><path style="opacity:1" fill="#a1bee0" d="M 1347.5,146.5 C 1354.42,146.783 1361.09,148.283 1367.5,151C 1368.46,155.066 1368.8,159.233 1368.5,163.5C 1364.61,162.554 1360.94,161.054 1357.5,159C 1352.5,158.333 1347.5,158.333 1342.5,159C 1334.91,162.832 1333.58,168.165 1338.5,175C 1346.04,179.561 1354.04,183.227 1362.5,186C 1371.65,192.155 1374.82,200.655 1372,211.5C 1368.5,221.658 1361.33,227.491 1350.5,229C 1343.43,229.839 1336.43,229.506 1329.5,228C 1319.9,226.137 1316.23,220.303 1318.5,210.5C 1323.8,212.55 1329.14,214.717 1334.5,217C 1339.59,217.826 1344.59,217.492 1349.5,216C 1355.72,212.111 1357.05,206.944 1353.5,200.5C 1344.16,195.768 1334.82,190.935 1325.5,186C 1319.84,179.17 1318.01,171.336 1320,162.5C 1321.69,157.475 1324.86,153.641 1329.5,151C 1335.39,148.529 1341.39,147.029 1347.5,146.5 Z"/></g>
<g><path style="opacity:1" fill="#a3c0e1" d="M 1478.5,146.5 C 1486.37,146.954 1494.04,148.454 1501.5,151C 1505.43,153.94 1508.26,157.773 1510,162.5C 1511.44,184.122 1511.94,205.788 1511.5,227.5C 1506.83,227.5 1502.17,227.5 1497.5,227.5C 1497.5,224.5 1497.5,221.5 1497.5,218.5C 1496.45,218.351 1495.45,218.517 1494.5,219C 1484.14,228.864 1472.14,231.53 1458.5,227C 1448.04,221.323 1443.87,212.489 1446,200.5C 1449.21,190.628 1456.05,185.128 1466.5,184C 1475.49,183.067 1484.49,182.234 1493.5,181.5C 1496.24,172.212 1493.57,165.045 1485.5,160C 1480.5,159.333 1475.5,159.333 1470.5,160C 1463.69,161.912 1457.03,164.079 1450.5,166.5C 1447.3,157.068 1450.63,151.568 1460.5,150C 1466.56,148.374 1472.56,147.208 1478.5,146.5 Z"/></g>
<g><path style="opacity:1" fill="#a2bfe1" d="M 762.5,148.5 C 767.833,148.5 773.167,148.5 778.5,148.5C 778.333,165.837 778.5,183.17 779,200.5C 782.217,213.025 789.717,216.858 801.5,212C 805.667,209.167 809.167,205.667 812,201.5C 812.333,184.167 812.667,166.833 813,149.5C 818.667,148.167 824.333,148.167 830,149.5C 830.5,175.498 830.667,201.498 830.5,227.5C 825.5,227.5 820.5,227.5 815.5,227.5C 815.5,223.5 815.5,219.5 815.5,215.5C 811.869,216.608 808.869,218.774 806.5,222C 793.104,232.032 779.938,231.865 767,221.5C 764.066,216.531 762.233,211.198 761.5,205.5C 761.18,186.424 761.513,167.424 762.5,148.5 Z"/></g>
<g><path style="opacity:1" fill="#a4c1e2" d="M 917.5,148.5 C 922.833,148.5 928.167,148.5 933.5,148.5C 933.5,174.833 933.5,201.167 933.5,227.5C 927.833,227.5 922.167,227.5 916.5,227.5C 916.176,201.092 916.51,174.759 917.5,148.5 Z"/></g>
<g><path style="opacity:1" fill="#a1bee0" d="M 1281.5,148.5 C 1286.83,148.5 1292.17,148.5 1297.5,148.5C 1297.5,174.833 1297.5,201.167 1297.5,227.5C 1291.57,227.808 1285.74,227.475 1280,226.5C 1279.83,213.667 1279.67,200.833 1279.5,188C 1279.52,174.611 1280.19,161.444 1281.5,148.5 Z"/></g>
<g><path style="opacity:1" fill="#6b88b9" d="M 762.5,148.5 C 761.513,167.424 761.18,186.424 761.5,205.5C 760.834,196.173 760.5,186.673 760.5,177C 760.502,167.142 761.168,157.642 762.5,148.5 Z"/></g>
<g><path style="opacity:1" fill="#3f5a96" d="M 1074.5,158.5 C 1091.04,157.204 1097.21,164.538 1093,180.5C 1087.52,188.655 1080.36,190.488 1071.5,186C 1065.3,180.337 1063.8,173.503 1067,165.5C 1068.74,162.254 1071.24,159.921 1074.5,158.5 Z"/></g>
<g><path style="opacity:1" fill="#3f5a96" d="M 457.5,160.5 C 471.393,157.85 480.226,163.183 484,176.5C 486.183,185.598 485.85,194.598 483,203.5C 476.206,215.653 466.373,218.819 453.5,213C 445.984,206.31 442.651,197.81 443.5,187.5C 443.03,175.686 447.696,166.686 457.5,160.5 Z"/></g>
<g><path style="opacity:1" fill="#3d5895" d="M 700.5,161.5 C 712.067,160.551 718.901,165.884 721,177.5C 721.667,184.5 721.667,191.5 721,198.5C 715.195,216.06 705.028,219.227 690.5,208C 689.12,206.075 687.62,204.241 686,202.5C 685.333,192.833 685.333,183.167 686,173.5C 690.172,168.476 695.005,164.476 700.5,161.5 Z"/></g>
<g><path style="opacity:1" fill="#f9fafc" d="M 1075.5,162.5 C 1087.85,160.816 1092.68,166.149 1090,178.5C 1089.53,179.931 1088.7,181.097 1087.5,182C 1073.59,187.1 1067.76,182.266 1070,167.5C 1071.35,165.251 1073.18,163.584 1075.5,162.5 Z"/></g>
<g><path style="opacity:1" fill="#fbfbfc" d="M 458.5,164.5 C 471.217,161.722 478.717,166.722 481,179.5C 481.991,187.651 481.324,195.651 479,203.5C 477.108,207.058 474.275,209.558 470.5,211C 459.347,214.343 452.18,210.51 449,199.5C 446.25,189.035 447.25,179.035 452,169.5C 453.965,167.45 456.132,165.783 458.5,164.5 Z"/></g>
<g><path style="opacity:1" fill="#fafafc" d="M 700.5,165.5 C 710.502,163.994 716.002,168.327 717,178.5C 717.667,185.167 717.667,191.833 717,198.5C 714.819,208.029 708.986,211.862 699.5,210C 695.701,207.203 692.201,204.036 689,200.5C 688.333,192.167 688.333,183.833 689,175.5C 692.435,171.555 696.268,168.222 700.5,165.5 Z"/></g>
<g><path style="opacity:1" fill="#3e5995" d="M 1478.5,191.5 C 1483.76,191.195 1488.93,191.529 1494,192.5C 1494.67,197.5 1494.67,202.5 1494,207.5C 1490.75,211.422 1486.92,214.588 1482.5,217C 1475.14,218.948 1468.97,217.115 1464,211.5C 1461.01,204.757 1462.51,199.257 1468.5,195C 1471.85,193.514 1475.18,192.347 1478.5,191.5 Z"/></g>
<g><path style="opacity:1" fill="#f8f9fb" d="M 1476.5,195.5 C 1481.17,195.5 1485.83,195.5 1490.5,195.5C 1492.14,206.692 1487.31,212.692 1476,213.5C 1467.48,212.795 1464.81,208.461 1468,200.5C 1470.75,198.545 1473.58,196.878 1476.5,195.5 Z"/></g>
<g><path style="opacity:1" fill="#445e99" d="M 1070.5,223.5 C 1077.87,223.464 1085.2,223.964 1092.5,225C 1100.01,229.079 1101.51,234.912 1097,242.5C 1091.93,246.688 1086.1,248.354 1079.5,247.5C 1072.83,248.648 1067.33,246.648 1063,241.5C 1061.4,233.708 1063.9,227.708 1070.5,223.5 Z"/></g>
<g><path style="opacity:1" fill="#99a7c8" d="M 690.5,226.5 C 689.833,236.833 689.167,247.167 688.5,257.5C 688.333,246.495 688.5,235.495 689,224.5C 689.717,225.044 690.217,225.711 690.5,226.5 Z"/></g>
<g><path style="opacity:1" fill="#fbfbfc" d="M 1071.5,227.5 C 1078.12,228.257 1084.79,228.757 1091.5,229C 1097.7,235.488 1096.37,240.155 1087.5,243C 1081.08,243.87 1074.75,243.536 1068.5,242C 1065.24,236.241 1066.24,231.408 1071.5,227.5 Z"/></g>
</svg>
